<svg width="18" height="11" viewBox="0 0 18 11" fill="none" xmlns="http://www.w3.org/2000/svg">
<path d="M9.01392 10.6524C8.83586 10.6524 8.67347 10.6233 8.52675 10.5649C8.38003 10.5064 8.23793 10.4085 8.10046 10.2711L0.328043 2.49861C0.127182 2.29778 0.0240848 2.05474 0.0187514 1.76949C0.0134181 1.48424 0.116515 1.23585 0.328043 1.02432C0.539571 0.812795 0.788141 0.707031 1.07375 0.707031C1.35936 0.707031 1.60793 0.812795 1.81946 1.02432L9.01392 8.21878L16.2084 1.02432C16.4092 0.823461 16.6523 0.720365 16.9375 0.715032C17.2228 0.709699 17.4712 0.812795 17.6827 1.02432C17.8942 1.23585 18 1.48442 18 1.77003C18 2.05562 17.8942 2.30418 17.6827 2.51574L9.92738 10.2711C9.7899 10.4085 9.64781 10.5064 9.50108 10.5649C9.35436 10.6233 9.19197 10.6524 9.01392 10.6524Z" fill="#475159"/>
</svg>
